<svg width="100" height="50" viewBox="0 0 100 50" fill="none" xmlns="http://www.w3.org/2000/svg">
<path d="M18.7258 15.504V33H15.8938V25.584H7.32575V33H4.49375V15.504H7.32575V22.872H15.8938V15.504H18.7258ZM27.821 33.264C26.621 33.264 25.597 33.032 24.749 32.568C23.901 32.104 23.245 31.464 22.781 30.648C22.333 29.816 22.109 28.872 22.109 27.816C22.109 26.808 22.365 25.896 22.877 25.08C23.405 24.248 24.101 23.592 24.965 23.112C25.845 22.616 26.813 22.368 27.869 22.368C29.277 22.368 30.437 22.776 31.349 23.592C32.261 24.392 32.869 25.536 33.173 27.024L24.989 29.784L24.365 28.248L30.701 25.992L30.149 26.304C29.973 25.824 29.693 25.408 29.309 25.056C28.925 24.704 28.381 24.528 27.677 24.528C26.829 24.528 26.141 24.824 25.613 25.416C25.085 25.992 24.821 26.744 24.821 27.672C24.821 28.68 25.109 29.48 25.685 30.072C26.277 30.648 27.005 30.936 27.869 30.936C28.285 30.936 28.685 30.864 29.069 30.72C29.453 30.576 29.813 30.384 30.149 30.144L31.397 32.16C30.869 32.496 30.285 32.768 29.645 32.976C29.021 33.168 28.413 33.264 27.821 33.264ZM40.0653 33.264C39.1053 33.264 38.2333 33.064 37.4493 32.664C36.6813 32.264 36.0653 31.672 35.6013 30.888C35.1533 30.088 34.9293 29.096 34.9293 27.912C34.9293 26.776 35.1693 25.792 35.6493 24.96C36.1293 24.128 36.7533 23.488 37.5213 23.04C38.3053 22.592 39.1453 22.368 40.0413 22.368C41.0333 22.368 41.8253 22.56 42.4173 22.944C43.0093 23.328 43.4813 23.776 43.8333 24.288L43.6893 24.672L43.9533 22.824H46.4733V33H43.7373V30.552L43.9773 31.176C43.9293 31.272 43.8093 31.432 43.6173 31.656C43.4253 31.864 43.1613 32.096 42.8253 32.352C42.5053 32.592 42.1133 32.808 41.6493 33C41.1853 33.176 40.6573 33.264 40.0653 33.264ZM40.8093 31.008C41.5453 31.008 42.1613 30.824 42.6573 30.456C43.1693 30.088 43.5293 29.568 43.7373 28.896V26.664C43.5453 26.056 43.1773 25.56 42.6333 25.176C42.0893 24.792 41.4493 24.6 40.7133 24.6C40.1693 24.6 39.6653 24.736 39.2013 25.008C38.7533 25.264 38.3933 25.632 38.1213 26.112C37.8493 26.592 37.7133 27.144 37.7133 27.768C37.7133 28.392 37.8573 28.952 38.1453 29.448C38.4333 29.928 38.8093 30.312 39.2733 30.6C39.7533 30.872 40.2653 31.008 40.8093 31.008ZM50.1605 14.256H52.8965V33H50.1605V14.256Z" fill="white"/>
<path d="M65.9105 33V14.256H68.5745V25.032L68.5505 24.624C68.9025 23.968 69.4145 23.432 70.0865 23.016C70.7745 22.6 71.6065 22.392 72.5825 22.392C73.5425 22.392 74.3345 22.672 74.9585 23.232C75.5825 23.792 75.9025 24.528 75.9185 25.44V33H73.1825V26.424C73.1665 25.928 73.0225 25.528 72.7505 25.224C72.4785 24.904 72.0545 24.736 71.4785 24.72C70.6465 24.72 69.9665 25.08 69.4385 25.8C68.9105 26.52 68.6465 27.424 68.6465 28.512V33H65.9105Z" fill="#FFFCFC"/>
<path d="M79.0694 26.496H83.5574V28.896H79.0694V26.496Z" fill="#FEFAFA"/>
<path d="M91.7819 33.264C90.5819 33.264 89.5579 33.032 88.7099 32.568C87.8619 32.104 87.2059 31.464 86.7419 30.648C86.2939 29.816 86.0699 28.872 86.0699 27.816C86.0699 26.808 86.3259 25.896 86.8379 25.08C87.3659 24.248 88.0619 23.592 88.9259 23.112C89.8059 22.616 90.7739 22.368 91.8299 22.368C93.2379 22.368 94.3979 22.776 95.3099 23.592C96.2219 24.392 96.8299 25.536 97.1339 27.024L88.9499 29.784L88.3259 28.248L94.6619 25.992L94.1099 26.304C93.9339 25.824 93.6539 25.408 93.2699 25.056C92.8859 24.704 92.3419 24.528 91.6379 24.528C90.7899 24.528 90.1019 24.824 89.5739 25.416C89.0459 25.992 88.7819 26.744 88.7819 27.672C88.7819 28.68 89.0699 29.48 89.6459 30.072C90.2379 30.648 90.9659 30.936 91.8299 30.936C92.2459 30.936 92.6459 30.864 93.0299 30.72C93.4139 30.576 93.7739 30.384 94.1099 30.144L95.3579 32.16C94.8299 32.496 94.2459 32.768 93.6059 32.976C92.9819 33.168 92.3739 33.264 91.7819 33.264Z" fill="#056584"/>
<path d="M58 22V13H61V22H64V27H61V37H58V27H55V22H58Z" stroke="#056584"/>
</svg>
